<svg version="1.0" xmlns="http://www.w3.org/2000/svg" width="374.000000pt" height="512.000000pt" viewBox="0 0 374.000000 512.000000" preserveAspectRatio="xMidYMid meet" transform="matrix(-1, 0, 0, 1, 0, 0)">

<g transform="translate(0.000000,512.000000) scale(0.100000,-0.100000)" fill="#f73434" stroke="none">
<path d="M289 5110 c-89 -15 -180 -77 -235 -160 -57 -86 -54 43 -52 -2386 l3 -2229 26 -56 c37 -79 90 -133 167 -171 l67 -33 1570 0 1570 0 56 26 c77 36 134 91 172 163 l32 61 3 1708 2 1707 -519 0 c-304 0 -540 4 -571 10 -147 28 -256 140 -281 289 -5 31 -9 287 -9 569 l0 512 -977 -1 c-538 -1 -999 -5 -1024 -9z m820 -2475 c70 -36 111 -121 92 -192 -31 -114 -155 -167 -256 -110 -122 69 -106 260 25 310 30 11 112 7 139 -8z m1646 -155 l0 -115 -632 -3 -633 -2 0 120 0 120 633 -2 632 -3 0 -115z m-1621 -434 c48 -36 70 -80 70 -141 1 -97 -72 -170 -169 -169 -188 1 -242 252 -70 331 47 21 127 12 169 -21z m1624 -138 l-3 -113 -632 -3 -633 -2 0 115 0 115 635 0 636 0 -3 -112z m-1632 -428 c113 -71 104 -239 -17 -300 -113 -58 -249 27 -249 155 0 134 150 216 266 145z m1634 -145 l0 -115 -635 0 -635 0 0 115 0 115 635 0 635 0 0 -115z" fill="#f73434"/>
</g>
</svg>